{
	"asset":{
		"generator":"Khronos glTF Blender I/O v4.2.57",
		"version":"2.0"
	},
	"scene":0,
	"scenes":[
		{
			"name":"Scene",
			"nodes":[
				5
			]
		}
	],
	"nodes":[
		{
			"mesh":0,
			"name":"Franks.C352.SC130k.DC32270k.M2064k_0"
		},
		{
			"children":[
				0
			],
			"name":"Franks.C352.SC130k.DC32270k.M2064k"
		},
		{
			"name":"Lamp.001"
		},
		{
			"children":[
				2
			],
			"name":"Lamp"
		},
		{
			"children":[
				1,
				3
			],
			"name":"Root"
		},
		{
			"children":[
				4
			],
			"name":"Sketchfab_model"
		}
	],
	"materials":[
		{
			"doubleSided":true,
			"name":"Franks.C352.SC130k.DC32270k.M2064k",
			"pbrMetallicRoughness":{
				"baseColorTexture":{
					"index":0
				},
				"metallicFactor":0,
				"roughnessFactor":0.6000000238418579
			}
		}
	],
	"meshes":[
		{
			"name":"Franks.C352.SC130k.DC32270k.M2064k_0",
			"primitives":[
				{
					"attributes":{
						"POSITION":0,
						"NORMAL":1,
						"TEXCOORD_0":2
					},
					"indices":3,
					"material":0
				}
			]
		}
	],
	"textures":[
		{
			"sampler":0,
			"source":0
		}
	],
	"images":[
		{
			"mimeType":"image/jpeg",
			"name":"Franks.C352.SC130k.DC32270k.M2064k_baseColor",
			"uri":"Franks_C352_SC130k_DC32270k_M2064k_baseColor.jpg"
		}
	],
	"accessors":[
		{
			"bufferView":0,
			"componentType":5126,
			"count":32267,
			"max":[
				3.75596284866333,
				7.0990495681762695,
				4.601527214050293
			],
			"min":[
				-3.734339714050293,
				-0.29576414823532104,
				-3.9983768463134766
			],
			"type":"VEC3"
		},
		{
			"bufferView":1,
			"componentType":5126,
			"count":32267,
			"type":"VEC3"
		},
		{
			"bufferView":2,
			"componentType":5126,
			"count":32267,
			"type":"VEC2"
		},
		{
			"bufferView":3,
			"componentType":5123,
			"count":149994,
			"type":"SCALAR"
		}
	],
	"bufferViews":[
		{
			"buffer":0,
			"byteLength":387204,
			"byteOffset":0,
			"target":34962
		},
		{
			"buffer":0,
			"byteLength":387204,
			"byteOffset":387204,
			"target":34962
		},
		{
			"buffer":0,
			"byteLength":258136,
			"byteOffset":774408,
			"target":34962
		},
		{
			"buffer":0,
			"byteLength":299988,
			"byteOffset":1032544,
			"target":34963
		}
	],
	"samplers":[
		{
			"magFilter":9729,
			"minFilter":9987
		}
	],
	"buffers":[
		{
			"byteLength":1332532,
			"uri":"scene2.bin"
		}
	]
}
